<?xml version="1.0" encoding="UTF-8"?>
<svg xmlns="http://www.w3.org/2000/svg" xmlns:xlink="http://www.w3.org/1999/xlink" width="220.198pt" height="90.723pt" viewBox="0 0 220.198 90.723" version="1.2">
<defs>
<g>
<symbol overflow="visible" id="glyph0-0">
<path style="stroke:none;" d=""/>
</symbol>
<symbol overflow="visible" id="glyph0-1">
<path style="stroke:none;" d="M 0.703125 0.578125 C 0.65625 0.703125 0.65625 0.734375 0.4375 0.734375 C 0.359375 0.734375 0.265625 0.734375 0.265625 0.875 C 0.265625 0.9375 0.3125 0.96875 0.359375 0.96875 C 0.421875 0.96875 0.515625 0.953125 0.59375 0.953125 C 0.671875 0.953125 0.765625 0.9375 0.84375 0.9375 C 0.9375 0.9375 1.03125 0.953125 1.140625 0.953125 C 1.21875 0.953125 1.328125 0.96875 1.40625 0.96875 C 1.46875 0.96875 1.53125 0.921875 1.53125 0.828125 C 1.53125 0.734375 1.453125 0.734375 1.375 0.734375 C 1.21875 0.734375 1.109375 0.734375 1.109375 0.6875 C 1.109375 0.65625 1.1875 0.34375 1.34375 -0.25 C 1.453125 -0.078125 1.65625 0.046875 1.9375 0.046875 C 2.640625 0.046875 3.328125 -0.625 3.328125 -1.328125 C 3.328125 -1.828125 2.96875 -2.203125 2.453125 -2.203125 C 2.078125 -2.203125 1.765625 -1.9375 1.671875 -1.84375 C 1.5625 -2.109375 1.265625 -2.203125 1.09375 -2.203125 C 0.921875 -2.203125 0.765625 -2.109375 0.640625 -1.921875 C 0.515625 -1.71875 0.453125 -1.453125 0.453125 -1.4375 C 0.453125 -1.359375 0.53125 -1.359375 0.5625 -1.359375 C 0.640625 -1.359375 0.65625 -1.375 0.671875 -1.453125 C 0.71875 -1.65625 0.828125 -2.03125 1.0625 -2.03125 C 1.234375 -2.03125 1.265625 -1.859375 1.265625 -1.765625 C 1.265625 -1.6875 1.265625 -1.671875 1.25 -1.640625 Z M 1.640625 -1.484375 C 1.671875 -1.5625 1.671875 -1.5625 1.75 -1.671875 C 1.953125 -1.890625 2.203125 -2.03125 2.4375 -2.03125 C 2.640625 -2.03125 2.875 -1.890625 2.875 -1.515625 C 2.875 -1.296875 2.765625 -0.828125 2.625 -0.59375 C 2.421875 -0.21875 2.125 -0.109375 1.9375 -0.109375 C 1.515625 -0.109375 1.421875 -0.515625 1.421875 -0.5625 C 1.421875 -0.578125 1.421875 -0.609375 1.4375 -0.640625 Z M 1.640625 -1.484375 "/>
</symbol>
<symbol overflow="visible" id="glyph0-2">
<path style="stroke:none;" d="M 3.1875 -1.78125 C 3.1875 -2.109375 3 -2.203125 2.890625 -2.203125 C 2.75 -2.203125 2.609375 -2.046875 2.609375 -1.90625 C 2.609375 -1.8125 2.671875 -1.765625 2.703125 -1.75 C 2.75 -1.703125 2.890625 -1.59375 2.890625 -1.359375 C 2.890625 -1.09375 2.515625 -0.109375 1.921875 -0.109375 C 1.671875 -0.109375 1.453125 -0.21875 1.453125 -0.578125 C 1.453125 -0.8125 1.578125 -1.140625 1.734375 -1.515625 C 1.765625 -1.59375 1.796875 -1.671875 1.796875 -1.765625 C 1.796875 -2 1.5625 -2.203125 1.25 -2.203125 C 0.71875 -2.203125 0.453125 -1.5625 0.453125 -1.421875 C 0.453125 -1.359375 0.53125 -1.359375 0.5625 -1.359375 C 0.640625 -1.359375 0.640625 -1.375 0.671875 -1.453125 C 0.765625 -1.78125 1 -2.03125 1.234375 -2.03125 C 1.328125 -2.03125 1.375 -1.96875 1.375 -1.84375 C 1.375 -1.734375 1.359375 -1.6875 1.296875 -1.546875 C 1.109375 -1.0625 1.03125 -0.8125 1.03125 -0.625 C 1.03125 -0.15625 1.421875 0.046875 1.90625 0.046875 C 2.3125 0.046875 2.59375 -0.234375 2.765625 -0.5 C 3.125 -1.03125 3.1875 -1.6875 3.1875 -1.78125 Z M 3.1875 -1.78125 "/>
</symbol>
<symbol overflow="visible" id="glyph0-3">
<path style="stroke:none;" d="M 1.4375 -0.296875 C 1.4375 -0.46875 1.296875 -0.609375 1.140625 -0.609375 C 0.96875 -0.609375 0.828125 -0.46875 0.828125 -0.296875 C 0.828125 -0.140625 0.96875 0 1.140625 0 C 1.296875 0 1.4375 -0.140625 1.4375 -0.296875 Z M 1.4375 -0.296875 "/>
</symbol>
<symbol overflow="visible" id="glyph0-4">
<path style="stroke:none;" d="M 2.75 -1.421875 L 2.59375 -0.796875 C 2.578125 -0.734375 2.546875 -0.625 2.546875 -0.59375 C 2.546875 -0.59375 2.28125 -0.109375 1.84375 -0.109375 C 1.65625 -0.109375 1.4375 -0.1875 1.4375 -0.546875 C 1.4375 -0.796875 1.5625 -1.140625 1.71875 -1.484375 C 1.765625 -1.609375 1.796875 -1.671875 1.796875 -1.765625 C 1.796875 -2 1.5625 -2.203125 1.25 -2.203125 C 0.734375 -2.203125 0.453125 -1.5625 0.453125 -1.421875 C 0.453125 -1.359375 0.53125 -1.359375 0.5625 -1.359375 C 0.640625 -1.359375 0.640625 -1.375 0.671875 -1.453125 C 0.765625 -1.78125 1 -2.03125 1.234375 -2.03125 C 1.328125 -2.03125 1.375 -1.96875 1.375 -1.84375 C 1.375 -1.734375 1.359375 -1.6875 1.296875 -1.546875 C 1.03125 -0.875 1.03125 -0.75 1.03125 -0.609375 C 1.03125 -0.046875 1.5 0.046875 1.828125 0.046875 C 2.109375 0.046875 2.359375 -0.078125 2.546875 -0.28125 C 2.65625 0.03125 3.03125 0.046875 3.125 0.046875 C 3.296875 0.046875 3.4375 -0.03125 3.546875 -0.21875 C 3.6875 -0.40625 3.75 -0.6875 3.75 -0.71875 C 3.75 -0.78125 3.671875 -0.78125 3.65625 -0.78125 C 3.5625 -0.78125 3.5625 -0.75 3.53125 -0.671875 C 3.4375 -0.296875 3.3125 -0.109375 3.140625 -0.109375 C 3 -0.109375 2.9375 -0.21875 2.9375 -0.375 C 2.9375 -0.484375 3.09375 -1.078125 3.296875 -1.84375 C 3.3125 -1.9375 3.3125 -1.9375 3.3125 -1.96875 C 3.3125 -2.078125 3.21875 -2.140625 3.125 -2.140625 C 2.9375 -2.140625 2.890625 -1.96875 2.859375 -1.828125 Z M 2.75 -1.421875 "/>
</symbol>
<symbol overflow="visible" id="glyph0-5">
<path style="stroke:none;" d="M 1.828125 -3.265625 C 1.84375 -3.328125 1.84375 -3.34375 1.84375 -3.359375 C 1.84375 -3.453125 1.78125 -3.453125 1.6875 -3.4375 L 1.078125 -3.40625 C 1 -3.390625 0.984375 -3.390625 0.96875 -3.375 C 0.9375 -3.34375 0.921875 -3.28125 0.921875 -3.25 C 0.921875 -3.171875 1.015625 -3.171875 1.078125 -3.171875 C 1.078125 -3.171875 1.171875 -3.171875 1.25 -3.15625 C 1.34375 -3.15625 1.34375 -3.140625 1.34375 -3.09375 C 1.34375 -3.078125 1.34375 -3.078125 1.328125 -2.984375 L 0.640625 -0.234375 C 0.609375 -0.15625 0.609375 -0.15625 0.609375 -0.125 C 0.609375 -0.015625 0.703125 0.046875 0.8125 0.046875 C 1 0.046875 1.046875 -0.125 1.0625 -0.203125 L 1.28125 -1.109375 C 1.421875 -1.109375 2.03125 -1.078125 2.03125 -0.71875 C 2.03125 -0.6875 2.03125 -0.671875 2.015625 -0.609375 C 2 -0.53125 2 -0.5 2 -0.484375 C 2 -0.125 2.328125 0.046875 2.609375 0.046875 C 3.125 0.046875 3.3125 -0.65625 3.3125 -0.71875 C 3.3125 -0.78125 3.234375 -0.78125 3.21875 -0.78125 C 3.125 -0.78125 3.125 -0.765625 3.09375 -0.671875 C 3.046875 -0.5 2.90625 -0.109375 2.640625 -0.109375 C 2.453125 -0.109375 2.421875 -0.296875 2.421875 -0.40625 C 2.421875 -0.40625 2.421875 -0.484375 2.4375 -0.5625 C 2.46875 -0.640625 2.46875 -0.703125 2.46875 -0.734375 C 2.46875 -1.171875 1.921875 -1.25 1.59375 -1.265625 C 1.734375 -1.34375 1.9375 -1.515625 2.015625 -1.59375 C 2.3125 -1.8125 2.578125 -2.03125 2.859375 -2.03125 C 2.96875 -2.03125 3 -2 3.03125 -1.96875 C 3.03125 -1.96875 3 -1.953125 3 -1.953125 C 2.765625 -1.875 2.765625 -1.671875 2.765625 -1.65625 C 2.765625 -1.5625 2.828125 -1.453125 2.984375 -1.453125 C 3.09375 -1.453125 3.296875 -1.53125 3.296875 -1.796875 C 3.296875 -2.046875 3.109375 -2.203125 2.875 -2.203125 C 2.53125 -2.203125 2.25 -1.96875 1.890625 -1.671875 C 1.703125 -1.53125 1.546875 -1.40625 1.34375 -1.328125 Z M 1.828125 -3.265625 "/>
</symbol>
<symbol overflow="visible" id="glyph0-6">
<path style="stroke:none;" d="M 3 -2.359375 C 3 -2.953125 2.734375 -3.5 2.1875 -3.5 C 1.390625 -3.5 0.53125 -2.25 0.53125 -1.09375 C 0.53125 -0.421875 0.859375 0.046875 1.34375 0.046875 C 2.15625 0.046875 3 -1.234375 3 -2.359375 Z M 1.140625 -1.84375 C 1.453125 -3.078125 1.953125 -3.328125 2.1875 -3.328125 C 2.46875 -3.328125 2.578125 -3.015625 2.578125 -2.625 C 2.578125 -2.484375 2.5625 -2.28125 2.453125 -1.84375 Z M 2.40625 -1.609375 C 2.109375 -0.421875 1.59375 -0.109375 1.34375 -0.109375 C 0.984375 -0.109375 0.953125 -0.671875 0.953125 -0.8125 C 0.953125 -1.015625 0.984375 -1.234375 1.078125 -1.609375 Z M 2.40625 -1.609375 "/>
</symbol>
<symbol overflow="visible" id="glyph1-0">
<path style="stroke:none;" d=""/>
</symbol>
<symbol overflow="visible" id="glyph1-1">
<path style="stroke:none;" d="M 1.734375 -0.734375 C 1.65625 -0.5 1.4375 -0.125 1.078125 -0.125 C 1.0625 -0.125 0.84375 -0.125 0.703125 -0.21875 C 0.984375 -0.3125 1.015625 -0.5625 1.015625 -0.609375 C 1.015625 -0.765625 0.890625 -0.859375 0.734375 -0.859375 C 0.53125 -0.859375 0.328125 -0.703125 0.328125 -0.4375 C 0.328125 -0.09375 0.71875 0.0625 1.0625 0.0625 C 1.390625 0.0625 1.671875 -0.125 1.84375 -0.421875 C 2.015625 -0.0625 2.390625 0.0625 2.671875 0.0625 C 3.46875 0.0625 3.890625 -0.796875 3.890625 -1 C 3.890625 -1.078125 3.796875 -1.078125 3.78125 -1.078125 C 3.6875 -1.078125 3.671875 -1.046875 3.65625 -0.96875 C 3.5 -0.484375 3.09375 -0.125 2.703125 -0.125 C 2.421875 -0.125 2.28125 -0.3125 2.28125 -0.578125 C 2.28125 -0.765625 2.4375 -1.390625 2.640625 -2.15625 C 2.78125 -2.703125 3.09375 -2.875 3.3125 -2.875 C 3.328125 -2.875 3.546875 -2.875 3.6875 -2.78125 C 3.46875 -2.71875 3.390625 -2.515625 3.390625 -2.390625 C 3.390625 -2.234375 3.5 -2.140625 3.671875 -2.140625 C 3.828125 -2.140625 4.046875 -2.265625 4.046875 -2.5625 C 4.046875 -2.953125 3.609375 -3.0625 3.328125 -3.0625 C 2.984375 -3.0625 2.703125 -2.84375 2.546875 -2.578125 C 2.421875 -2.859375 2.109375 -3.0625 1.71875 -3.0625 C 0.9375 -3.0625 0.5 -2.21875 0.5 -2 C 0.5 -1.90625 0.59375 -1.90625 0.609375 -1.90625 C 0.703125 -1.90625 0.703125 -1.9375 0.75 -2.03125 C 0.921875 -2.578125 1.359375 -2.875 1.703125 -2.875 C 1.921875 -2.875 2.109375 -2.75 2.109375 -2.40625 C 2.109375 -2.28125 2.03125 -1.921875 1.96875 -1.6875 Z M 1.734375 -0.734375 "/>
</symbol>
<symbol overflow="visible" id="glyph1-2">
<path style="stroke:none;" d="M 2.15625 -2.53125 L 2.984375 -2.53125 C 2.890625 -2.109375 2.734375 -1.46875 2.734375 -0.921875 C 2.734375 -0.640625 2.765625 -0.453125 2.8125 -0.3125 C 2.921875 0.046875 3.015625 0.0625 3.125 0.0625 C 3.28125 0.0625 3.453125 -0.078125 3.453125 -0.25 C 3.453125 -0.296875 3.4375 -0.328125 3.390625 -0.390625 C 3.265625 -0.65625 3.140625 -1.046875 3.140625 -1.625 C 3.140625 -1.75 3.140625 -2.03125 3.234375 -2.53125 L 4.109375 -2.53125 C 4.234375 -2.53125 4.28125 -2.53125 4.359375 -2.578125 C 4.453125 -2.65625 4.484375 -2.765625 4.484375 -2.796875 C 4.484375 -3 4.296875 -3 4.171875 -3 L 1.5625 -3 C 1.265625 -3 1.078125 -2.9375 0.765625 -2.640625 C 0.578125 -2.484375 0.3125 -2.109375 0.3125 -2.046875 C 0.3125 -1.953125 0.40625 -1.953125 0.4375 -1.953125 C 0.5 -1.953125 0.515625 -1.96875 0.5625 -2.03125 C 0.90625 -2.53125 1.34375 -2.53125 1.5 -2.53125 L 1.921875 -2.53125 C 1.703125 -1.765625 1.328125 -0.9375 1.125 -0.515625 C 1.078125 -0.4375 1.015625 -0.28125 0.984375 -0.25 C 0.984375 -0.234375 0.96875 -0.203125 0.96875 -0.15625 C 0.96875 -0.046875 1.046875 0.0625 1.203125 0.0625 C 1.484375 0.0625 1.5625 -0.25 1.734375 -0.875 Z M 2.15625 -2.53125 "/>
</symbol>
<symbol overflow="visible" id="glyph2-0">
<path style="stroke:none;" d=""/>
</symbol>
<symbol overflow="visible" id="glyph2-1">
<path style="stroke:none;" d="M 2.46875 -5.21875 C 1.140625 -4.28125 0.796875 -2.8125 0.796875 -1.75 C 0.796875 -0.765625 1.09375 0.765625 2.46875 1.734375 C 2.53125 1.734375 2.609375 1.734375 2.609375 1.640625 C 2.609375 1.609375 2.59375 1.59375 2.53125 1.546875 C 1.609375 0.703125 1.265625 -0.46875 1.265625 -1.734375 C 1.265625 -3.609375 1.984375 -4.53125 2.5625 -5.046875 C 2.59375 -5.078125 2.609375 -5.09375 2.609375 -5.125 C 2.609375 -5.21875 2.53125 -5.21875 2.46875 -5.21875 Z M 2.46875 -5.21875 "/>
</symbol>
<symbol overflow="visible" id="glyph2-2">
<path style="stroke:none;" d="M 0.625 -5.21875 C 0.578125 -5.21875 0.5 -5.21875 0.5 -5.125 C 0.5 -5.09375 0.515625 -5.078125 0.5625 -5.03125 C 1.15625 -4.484375 1.828125 -3.546875 1.828125 -1.75 C 1.828125 -0.296875 1.375 0.8125 0.625 1.484375 C 0.5 1.609375 0.5 1.609375 0.5 1.640625 C 0.5 1.6875 0.515625 1.734375 0.578125 1.734375 C 0.671875 1.734375 1.328125 1.265625 1.78125 0.40625 C 2.09375 -0.171875 2.296875 -0.921875 2.296875 -1.734375 C 2.296875 -2.71875 2 -4.234375 0.625 -5.21875 Z M 0.625 -5.21875 "/>
</symbol>
<symbol overflow="visible" id="glyph3-0">
<path style="stroke:none;" d=""/>
</symbol>
<symbol overflow="visible" id="glyph3-1">
<path style="stroke:none;" d="M 2.3125 0 L 2.3125 -0.328125 L 1.75 -0.328125 L 1.75 -3.078125 L 2.3125 -3.078125 L 2.3125 -3.40625 C 2 -3.390625 1.671875 -3.390625 1.359375 -3.390625 C 1.0625 -3.390625 0.734375 -3.390625 0.421875 -3.40625 L 0.421875 -3.078125 L 0.984375 -3.078125 L 0.984375 -0.328125 L 0.421875 -0.328125 L 0.421875 0 C 0.734375 -0.015625 1.0625 -0.015625 1.359375 -0.015625 C 1.671875 -0.015625 2 -0.015625 2.3125 0 Z M 2.3125 0 "/>
</symbol>
<symbol overflow="visible" id="glyph3-2">
<path style="stroke:none;" d="M 3.859375 0 L 3.859375 -0.328125 L 3.5 -0.328125 L 3.5 -1.46875 C 3.5 -2.203125 2.90625 -2.25 2.53125 -2.25 C 1.859375 -2.25 1.546875 -1.90625 1.421875 -1.71875 L 1.421875 -2.25 L 0.484375 -2.203125 L 0.484375 -1.875 C 0.796875 -1.875 0.84375 -1.875 0.84375 -1.671875 L 0.84375 -0.328125 L 0.484375 -0.328125 L 0.484375 0 L 1.171875 -0.015625 C 1.359375 -0.015625 1.640625 -0.015625 1.859375 0 L 1.859375 -0.328125 L 1.5 -0.328125 L 1.5 -1.203125 C 1.5 -1.8125 2.109375 -1.96875 2.421875 -1.96875 C 2.734375 -1.96875 2.84375 -1.84375 2.84375 -1.484375 L 2.84375 -0.328125 L 2.484375 -0.328125 L 2.484375 0 L 3.171875 -0.015625 C 3.359375 -0.015625 3.640625 -0.015625 3.859375 0 Z M 3.859375 0 "/>
</symbol>
<symbol overflow="visible" id="glyph3-3">
<path style="stroke:none;" d="M 3.84375 -1.109375 C 3.84375 -1.640625 3.4375 -2.25 2.40625 -2.25 C 2.21875 -2.25 1.796875 -2.234375 1.390625 -2.03125 L 1.390625 -2.25 L 0.421875 -2.203125 L 0.421875 -1.875 L 0.5 -1.875 C 0.78125 -1.875 0.78125 -1.84375 0.78125 -1.703125 L 0.78125 0.625 L 0.421875 0.625 L 0.421875 0.96875 L 1.109375 0.9375 L 1.796875 0.96875 L 1.796875 0.625 L 1.4375 0.625 L 1.4375 -0.1875 C 1.578125 -0.09375 1.859375 0.046875 2.28125 0.046875 C 3.328125 0.046875 3.84375 -0.5 3.84375 -1.109375 Z M 3.09375 -1.109375 C 3.09375 -0.5625 2.734375 -0.234375 2.21875 -0.234375 C 1.984375 -0.234375 1.671875 -0.3125 1.4375 -0.640625 L 1.4375 -1.625 C 1.6875 -1.890625 2.078125 -1.9375 2.28125 -1.9375 C 2.828125 -1.9375 3.09375 -1.578125 3.09375 -1.109375 Z M 3.09375 -1.109375 "/>
</symbol>
<symbol overflow="visible" id="glyph3-4">
<path style="stroke:none;" d="M 3.859375 0 L 3.859375 -0.328125 C 3.53125 -0.328125 3.5 -0.328125 3.5 -0.53125 L 3.5 -2.25 L 2.484375 -2.203125 L 2.484375 -1.875 C 2.796875 -1.875 2.84375 -1.875 2.84375 -1.671875 L 2.84375 -0.78125 C 2.84375 -0.328125 2.359375 -0.234375 2.015625 -0.234375 C 1.5 -0.234375 1.5 -0.34375 1.5 -0.5625 L 1.5 -2.25 L 0.484375 -2.203125 L 0.484375 -1.875 C 0.796875 -1.875 0.84375 -1.875 0.84375 -1.671875 L 0.84375 -0.59375 C 0.84375 -0.015625 1.4375 0.046875 1.90625 0.046875 C 2.078125 0.046875 2.546875 0.046875 2.875 -0.28125 L 2.875 0.046875 Z M 3.859375 0 "/>
</symbol>
<symbol overflow="visible" id="glyph3-5">
<path style="stroke:none;" d="M 2.484375 -0.59375 L 2.484375 -0.828125 L 2.0625 -0.828125 L 2.0625 -0.609375 C 2.0625 -0.46875 2.015625 -0.265625 1.734375 -0.265625 C 1.421875 -0.265625 1.421875 -0.46875 1.421875 -0.59375 L 1.421875 -1.875 L 2.359375 -1.875 L 2.359375 -2.203125 L 1.421875 -2.203125 L 1.421875 -3.15625 L 1 -3.15625 C 1 -2.640625 0.71875 -2.171875 0.21875 -2.15625 L 0.21875 -1.875 L 0.75 -1.875 L 0.75 -0.59375 C 0.75 -0.03125 1.296875 0.046875 1.625 0.046875 C 1.984375 0.046875 2.484375 -0.09375 2.484375 -0.59375 Z M 2.484375 -0.59375 "/>
</symbol>
<symbol overflow="visible" id="glyph3-6">
<path style="stroke:none;" d="M 5.265625 0 L 5.265625 -0.328125 L 4.75 -0.328125 L 4.75 -3.078125 L 5.265625 -3.078125 L 5.265625 -3.40625 L 4.359375 -3.390625 L 3.4375 -3.40625 L 3.4375 -3.078125 L 3.96875 -3.078125 L 3.96875 -1.9375 L 1.765625 -1.9375 L 1.765625 -3.078125 L 2.28125 -3.078125 L 2.28125 -3.40625 L 1.375 -3.390625 L 0.453125 -3.40625 L 0.453125 -3.078125 L 0.984375 -3.078125 L 0.984375 -0.328125 L 0.453125 -0.328125 L 0.453125 0 L 1.375 -0.015625 L 2.28125 0 L 2.28125 -0.328125 L 1.765625 -0.328125 L 1.765625 -1.609375 L 3.96875 -1.609375 L 3.96875 -0.328125 L 3.4375 -0.328125 L 3.4375 0 L 4.359375 -0.015625 Z M 5.265625 0 "/>
</symbol>
<symbol overflow="visible" id="glyph3-7">
<path style="stroke:none;" d="M 1.796875 0 L 1.796875 -0.328125 L 1.484375 -0.328125 L 1.484375 -2.25 L 0.515625 -2.203125 L 0.515625 -1.875 C 0.828125 -1.875 0.859375 -1.875 0.859375 -1.671875 L 0.859375 -0.328125 L 0.5 -0.328125 L 0.5 0 C 0.71875 -0.015625 0.9375 -0.015625 1.15625 -0.015625 C 1.375 -0.015625 1.59375 -0.015625 1.796875 0 Z M 1.515625 -3 C 1.515625 -3.234375 1.3125 -3.40625 1.078125 -3.40625 C 0.84375 -3.40625 0.65625 -3.21875 0.65625 -3 C 0.65625 -2.765625 0.859375 -2.578125 1.078125 -2.578125 C 1.328125 -2.578125 1.515625 -2.765625 1.515625 -3 Z M 1.515625 -3 "/>
</symbol>
<symbol overflow="visible" id="glyph3-8">
<path style="stroke:none;" d="M 3.75 0 L 3.75 -0.328125 C 3.4375 -0.328125 3.390625 -0.328125 3.390625 -0.53125 L 3.390625 -3.453125 L 2.421875 -3.40625 L 2.421875 -3.078125 C 2.734375 -3.078125 2.765625 -3.078125 2.765625 -2.875 L 2.765625 -2.046875 C 2.578125 -2.140625 2.265625 -2.25 1.875 -2.25 C 0.8125 -2.25 0.328125 -1.6875 0.328125 -1.09375 C 0.328125 -0.5625 0.75 0.046875 1.8125 0.046875 C 2.1875 0.046875 2.5 -0.0625 2.734375 -0.203125 L 2.734375 0.046875 Z M 2.734375 -0.65625 C 2.484375 -0.34375 2.15625 -0.234375 1.875 -0.234375 C 1.0625 -0.234375 1.0625 -0.828125 1.0625 -1.09375 C 1.0625 -1.359375 1.0625 -1.96875 1.953125 -1.96875 C 2.171875 -1.96875 2.421875 -1.90625 2.625 -1.75 C 2.734375 -1.65625 2.734375 -1.65625 2.734375 -1.5625 Z M 2.734375 -0.65625 "/>
</symbol>
<symbol overflow="visible" id="glyph3-9">
<path style="stroke:none;" d="M 3.15625 -0.546875 C 3.15625 -0.671875 3.03125 -0.671875 2.96875 -0.671875 L 2.9375 -0.671875 C 2.84375 -0.671875 2.796875 -0.671875 2.75 -0.59375 C 2.703125 -0.5 2.5625 -0.265625 2.03125 -0.265625 C 1.40625 -0.265625 1.078125 -0.515625 1.03125 -0.984375 L 2.96875 -0.984375 C 3.0625 -0.984375 3.15625 -0.984375 3.15625 -1.140625 C 3.15625 -1.421875 3.046875 -1.765625 2.84375 -1.953125 C 2.609375 -2.15625 2.3125 -2.265625 1.8125 -2.265625 C 0.703125 -2.265625 0.28125 -1.65625 0.28125 -1.125 C 0.28125 -0.59375 0.703125 0.046875 1.921875 0.046875 C 2.046875 0.046875 2.390625 0.046875 2.6875 -0.078125 C 3.03125 -0.21875 3.15625 -0.484375 3.15625 -0.546875 Z M 2.65625 -1.234375 L 1.03125 -1.234375 C 1.03125 -1.40625 1.046875 -1.984375 1.828125 -1.984375 C 2.5 -1.984375 2.625 -1.5625 2.65625 -1.234375 Z M 2.65625 -1.234375 "/>
</symbol>
<symbol overflow="visible" id="glyph3-10">
<path style="stroke:none;" d="M 4.078125 -1.140625 L 3.65625 -1.140625 C 3.515625 -0.421875 2.953125 -0.328125 2.515625 -0.328125 L 1.765625 -0.328125 L 1.765625 -3.078125 L 2.421875 -3.078125 L 2.421875 -3.40625 C 2.171875 -3.390625 1.65625 -3.390625 1.390625 -3.390625 L 0.453125 -3.40625 L 0.453125 -3.078125 L 0.984375 -3.078125 L 0.984375 -0.328125 L 0.453125 -0.328125 L 0.453125 0 L 3.875 0 Z M 4.078125 -1.140625 "/>
</symbol>
<symbol overflow="visible" id="glyph3-11">
<path style="stroke:none;" d="M 3.5625 -0.171875 C 3.5625 -0.328125 3.46875 -0.328125 3.375 -0.328125 L 3.34375 -0.328125 C 3.28125 -0.328125 3.09375 -0.328125 2.984375 -0.375 L 2.984375 -1.4375 C 2.984375 -1.84375 2.671875 -2.265625 1.609375 -2.265625 C 1.265625 -2.265625 0.53125 -2.265625 0.53125 -1.734375 C 0.53125 -1.484375 0.703125 -1.34375 0.90625 -1.34375 C 1.125 -1.34375 1.265625 -1.515625 1.265625 -1.71875 C 1.265625 -1.8125 1.25 -1.890625 1.203125 -1.953125 C 1.390625 -1.984375 1.53125 -1.984375 1.625 -1.984375 C 2.0625 -1.984375 2.328125 -1.8125 2.328125 -1.421875 L 2.328125 -1.328125 C 2.265625 -1.328125 1.75 -1.34375 1.25 -1.25 C 0.671875 -1.140625 0.28125 -0.96875 0.28125 -0.59375 C 0.28125 0.046875 1.25 0.046875 1.4375 0.046875 C 1.921875 0.046875 2.296875 -0.078125 2.4375 -0.296875 C 2.484375 0 2.828125 0 3.203125 0 C 3.515625 0 3.5625 0 3.5625 -0.171875 Z M 2.328125 -0.65625 C 2.328125 -0.546875 2.328125 -0.40625 2.078125 -0.3125 C 1.875 -0.234375 1.609375 -0.234375 1.578125 -0.234375 C 1.21875 -0.234375 0.953125 -0.375 0.953125 -0.59375 C 0.953125 -1.046875 2.09375 -1.078125 2.328125 -1.09375 Z M 2.328125 -0.65625 "/>
</symbol>
<symbol overflow="visible" id="glyph3-12">
<path style="stroke:none;" d="M 3.703125 -1.875 L 3.703125 -2.203125 C 3.5625 -2.203125 3.40625 -2.1875 3.203125 -2.1875 C 3.015625 -2.1875 2.8125 -2.1875 2.640625 -2.203125 L 2.640625 -1.875 L 2.875 -1.875 L 2.21875 -0.625 L 1.40625 -1.875 L 1.609375 -1.875 L 1.609375 -2.203125 C 1.359375 -2.1875 1.046875 -2.1875 0.921875 -2.1875 C 0.703125 -2.1875 0.5 -2.1875 0.28125 -2.203125 L 0.28125 -1.875 L 0.671875 -1.875 L 1.84375 -0.0625 C 1.875 -0.015625 1.875 0 1.875 0 C 1.875 0.015625 1.796875 0.15625 1.75 0.234375 C 1.65625 0.421875 1.484375 0.71875 0.921875 0.71875 C 0.890625 0.71875 0.84375 0.71875 0.84375 0.71875 C 0.84375 0.71875 0.84375 0.703125 0.859375 0.6875 C 0.921875 0.609375 0.921875 0.515625 0.921875 0.46875 C 0.921875 0.234375 0.765625 0.109375 0.578125 0.109375 C 0.390625 0.109375 0.21875 0.234375 0.21875 0.46875 C 0.21875 0.75 0.484375 1 0.90625 1 C 1.234375 1 1.859375 0.890625 2.15625 0.359375 L 3.34375 -1.875 Z M 3.703125 -1.875 "/>
</symbol>
<symbol overflow="visible" id="glyph3-13">
<path style="stroke:none;" d="M 2.8125 -1.78125 C 2.8125 -2.0625 2.515625 -2.25 2.1875 -2.25 C 1.75 -2.25 1.453125 -1.9375 1.3125 -1.640625 L 1.3125 -2.25 L 0.421875 -2.203125 L 0.421875 -1.875 C 0.734375 -1.875 0.78125 -1.875 0.78125 -1.671875 L 0.78125 -0.328125 L 0.421875 -0.328125 L 0.421875 0 C 0.640625 -0.015625 0.875 -0.015625 1.109375 -0.015625 C 1.375 -0.015625 1.671875 -0.015625 1.84375 0 L 1.84375 -0.328125 L 1.390625 -0.328125 L 1.390625 -0.984375 C 1.390625 -1.515625 1.703125 -1.9375 2.125 -1.96875 C 2.109375 -1.921875 2.078125 -1.890625 2.078125 -1.78125 C 2.078125 -1.5625 2.234375 -1.40625 2.4375 -1.40625 C 2.640625 -1.40625 2.8125 -1.5625 2.8125 -1.78125 Z M 2.8125 -1.78125 "/>
</symbol>
<symbol overflow="visible" id="glyph3-14">
<path style="stroke:none;" d="M 2.6875 -0.703125 C 2.6875 -0.984375 2.46875 -1.15625 2.328125 -1.234375 C 2.078125 -1.375 1.953125 -1.390625 1.359375 -1.46875 C 1.015625 -1.515625 0.71875 -1.5625 0.71875 -1.75 C 0.71875 -1.875 0.875 -2.015625 1.453125 -2.015625 C 1.96875 -2.015625 2.0625 -1.890625 2.09375 -1.703125 C 2.09375 -1.578125 2.140625 -1.578125 2.265625 -1.578125 L 2.328125 -1.578125 C 2.46875 -1.578125 2.5 -1.59375 2.5 -1.75 L 2.5 -2.09375 C 2.5 -2.203125 2.5 -2.265625 2.34375 -2.265625 C 2.296875 -2.265625 2.203125 -2.21875 2.125 -2.1875 C 1.90625 -2.265625 1.640625 -2.265625 1.484375 -2.265625 C 1.3125 -2.265625 0.984375 -2.265625 0.703125 -2.140625 C 0.390625 -2 0.328125 -1.75 0.328125 -1.609375 C 0.328125 -1.078125 1 -1 1.359375 -0.9375 C 1.953125 -0.859375 2.28125 -0.8125 2.28125 -0.578125 C 2.28125 -0.234375 1.65625 -0.234375 1.53125 -0.234375 C 1.09375 -0.234375 0.859375 -0.375 0.734375 -0.703125 C 0.703125 -0.796875 0.6875 -0.796875 0.5625 -0.796875 L 0.5 -0.796875 C 0.34375 -0.796875 0.328125 -0.78125 0.328125 -0.625 L 0.328125 -0.140625 C 0.328125 -0.03125 0.328125 0.046875 0.46875 0.046875 C 0.53125 0.046875 0.53125 0.046875 0.640625 -0.015625 C 0.671875 -0.03125 0.75 -0.078125 0.78125 -0.109375 C 1.0625 0.046875 1.390625 0.046875 1.53125 0.046875 C 1.71875 0.046875 2.6875 0.046875 2.6875 -0.703125 Z M 2.6875 -0.703125 "/>
</symbol>
<symbol overflow="visible" id="glyph3-15">
<path style="stroke:none;" d="M 5.09375 -1.671875 C 5.09375 -2.578125 4.40625 -3.5 2.78125 -3.5 C 1.15625 -3.5 0.484375 -2.578125 0.484375 -1.671875 C 0.484375 -0.8125 1.15625 0.078125 2.78125 0.078125 C 4.421875 0.078125 5.09375 -0.8125 5.09375 -1.671875 Z M 4.234375 -1.765625 C 4.234375 -0.84375 3.8125 -0.234375 2.78125 -0.234375 C 1.6875 -0.234375 1.34375 -0.921875 1.34375 -1.765625 C 1.34375 -2.09375 1.390625 -2.53125 1.71875 -2.84375 C 2.03125 -3.125 2.46875 -3.1875 2.78125 -3.1875 C 3.109375 -3.1875 3.515625 -3.125 3.84375 -2.84375 C 4.171875 -2.546875 4.234375 -2.109375 4.234375 -1.765625 Z M 4.234375 -1.765625 "/>
</symbol>
</g>
<clipPath id="clip1">
  <path d="M 26 49 L 68 49 L 68 90.421875 L 26 90.421875 Z M 26 49 "/>
</clipPath>
<clipPath id="clip2">
  <path d="M 64 0.0273438 L 104 0.0273438 L 104 40 L 64 40 Z M 64 0.0273438 "/>
</clipPath>
<clipPath id="clip3">
  <path d="M 64 59 L 104 59 L 104 90.421875 L 64 90.421875 Z M 64 59 "/>
</clipPath>
<clipPath id="clip4">
  <path d="M 100 0.0273438 L 141 0.0273438 L 141 40 L 100 40 Z M 100 0.0273438 "/>
</clipPath>
<clipPath id="clip5">
  <path d="M 100 59 L 141 59 L 141 90.421875 L 100 90.421875 Z M 100 59 "/>
</clipPath>
</defs>
<g id="surface1">
<path style="fill-rule:nonzero;fill:rgb(100%,100%,100%);fill-opacity:1;stroke-width:0.79701;stroke-linecap:butt;stroke-linejoin:miter;stroke:rgb(10.586548%,21.174622%,36.471558%);stroke-opacity:1;stroke-miterlimit:10;" d="M 9.213487 19.841312 C 9.213487 24.930092 5.089145 29.054434 0.000365208 29.054434 C -5.088414 29.054434 -9.212756 24.930092 -9.212756 19.841312 C -9.212756 14.756453 -5.088414 10.628191 0.000365208 10.628191 C 5.089145 10.628191 9.213487 14.756453 9.213487 19.841312 Z M 9.213487 19.841312 " transform="matrix(0.996371,0,0,-0.996371,47.187136,49.909934)"/>
<path style="fill-rule:nonzero;fill:rgb(100%,100%,100%);fill-opacity:1;stroke-width:0.79701;stroke-linecap:butt;stroke-linejoin:miter;stroke:rgb(10.586548%,21.174622%,36.471558%);stroke-opacity:1;stroke-miterlimit:10;" d="M 9.213487 -0.000223259 C 9.213487 5.088556 5.089145 9.212898 0.000365208 9.212898 C -5.088414 9.212898 -9.212756 5.088556 -9.212756 -0.000223259 C -9.212756 -5.089003 -5.088414 -9.213345 0.000365208 -9.213345 C 5.089145 -9.213345 9.213487 -5.089003 9.213487 -0.000223259 Z M 9.213487 -0.000223259 " transform="matrix(0.996371,0,0,-0.996371,47.187136,49.909934)"/>
<path style=" stroke:none;fill-rule:nonzero;fill:rgb(100%,100%,100%);fill-opacity:1;" d="M 56.367188 69.679688 C 56.367188 64.609375 52.257812 60.5 47.1875 60.5 C 42.117188 60.5 38.007812 64.609375 38.007812 69.679688 C 38.007812 74.75 42.117188 78.859375 47.1875 78.859375 C 52.257812 78.859375 56.367188 74.75 56.367188 69.679688 Z M 56.367188 69.679688 "/>
<g clip-path="url(#clip1)" clip-rule="nonzero">
<path style="fill:none;stroke-width:0.79701;stroke-linecap:butt;stroke-linejoin:miter;stroke:rgb(10.586548%,21.174622%,36.471558%);stroke-opacity:1;stroke-miterlimit:10;" d="M 9.213487 -19.841759 C 9.213487 -14.752979 5.089145 -10.628637 0.000365208 -10.628637 C -5.088414 -10.628637 -9.212756 -14.752979 -9.212756 -19.841759 C -9.212756 -24.930538 -5.088414 -29.05488 0.000365208 -29.05488 C 5.089145 -29.05488 9.213487 -24.930538 9.213487 -19.841759 Z M 9.213487 -19.841759 " transform="matrix(0.996371,0,0,-0.996371,47.187136,49.909934)"/>
</g>
<g style="fill:rgb(10.586548%,21.174622%,36.471558%);fill-opacity:1;">
  <use xlink:href="#glyph0-1" x="45.350824" y="30.724809"/>
</g>
<g style="fill:rgb(10.586548%,21.174622%,36.471558%);fill-opacity:1;">
  <use xlink:href="#glyph0-2" x="45.304991" y="50.978044"/>
</g>
<g style="fill:rgb(10.586548%,21.174622%,36.471558%);fill-opacity:1;">
  <use xlink:href="#glyph0-3" x="41.947221" y="69.982825"/>
</g>
<g style="fill:rgb(10.586548%,21.174622%,36.471558%);fill-opacity:1;">
  <use xlink:href="#glyph0-3" x="45.43787" y="69.982825"/>
</g>
<g style="fill:rgb(10.586548%,21.174622%,36.471558%);fill-opacity:1;">
  <use xlink:href="#glyph0-3" x="48.928518" y="69.982825"/>
</g>
<path style=" stroke:none;fill-rule:nonzero;fill:rgb(85.76355%,93.70575%,92.999268%);fill-opacity:1;" d="M 92.378906 20.253906 C 92.378906 15.574219 88.585938 11.78125 83.90625 11.78125 C 79.226562 11.78125 75.429688 15.574219 75.429688 20.253906 C 75.429688 24.933594 79.226562 28.726562 83.90625 28.726562 C 88.585938 28.726562 92.378906 24.933594 92.378906 20.253906 Z M 92.378906 20.253906 "/>
<g clip-path="url(#clip2)" clip-rule="nonzero">
<path style="fill:none;stroke-width:0.79701;stroke-linecap:butt;stroke-linejoin:miter;stroke:rgb(4.078674%,46.430969%,42.666626%);stroke-opacity:1;stroke-miterlimit:10;" d="M 45.356367 29.76404 C 45.356367 34.460772 41.549583 38.267555 36.852851 38.267555 C 32.15612 38.267555 28.345416 34.460772 28.345416 29.76404 C 28.345416 25.067308 32.15612 21.260525 36.852851 21.260525 C 41.549583 21.260525 45.356367 25.067308 45.356367 29.76404 Z M 45.356367 29.76404 " transform="matrix(0.996371,0,0,-0.996371,47.187136,49.909934)"/>
</g>
<path style="fill-rule:nonzero;fill:rgb(85.76355%,93.70575%,92.999268%);fill-opacity:1;stroke-width:0.79701;stroke-linecap:butt;stroke-linejoin:miter;stroke:rgb(4.078674%,46.430969%,42.666626%);stroke-opacity:1;stroke-miterlimit:10;" d="M 45.356367 9.922505 C 45.356367 14.619236 41.549583 18.42602 36.852851 18.42602 C 32.15612 18.42602 28.345416 14.619236 28.345416 9.922505 C 28.345416 5.225773 32.15612 1.41899 36.852851 1.41899 C 41.549583 1.41899 45.356367 5.225773 45.356367 9.922505 Z M 45.356367 9.922505 " transform="matrix(0.996371,0,0,-0.996371,47.187136,49.909934)"/>
<path style="fill-rule:nonzero;fill:rgb(85.76355%,93.70575%,92.999268%);fill-opacity:1;stroke-width:0.79701;stroke-linecap:butt;stroke-linejoin:miter;stroke:rgb(4.078674%,46.430969%,42.666626%);stroke-opacity:1;stroke-miterlimit:10;" d="M 45.356367 -9.922951 C 45.356367 -5.226219 41.549583 -1.415516 36.852851 -1.415516 C 32.15612 -1.415516 28.345416 -5.226219 28.345416 -9.922951 C 28.345416 -14.619683 32.15612 -18.426466 36.852851 -18.426466 C 41.549583 -18.426466 45.356367 -14.619683 45.356367 -9.922951 Z M 45.356367 -9.922951 " transform="matrix(0.996371,0,0,-0.996371,47.187136,49.909934)"/>
<path style=" stroke:none;fill-rule:nonzero;fill:rgb(85.76355%,93.70575%,92.999268%);fill-opacity:1;" d="M 92.378906 79.566406 C 92.378906 74.886719 88.585938 71.09375 83.90625 71.09375 C 79.226562 71.09375 75.429688 74.886719 75.429688 79.566406 C 75.429688 84.246094 79.226562 88.039062 83.90625 88.039062 C 88.585938 88.039062 92.378906 84.246094 92.378906 79.566406 Z M 92.378906 79.566406 "/>
<g clip-path="url(#clip3)" clip-rule="nonzero">
<path style="fill:none;stroke-width:0.79701;stroke-linecap:butt;stroke-linejoin:miter;stroke:rgb(4.078674%,46.430969%,42.666626%);stroke-opacity:1;stroke-miterlimit:10;" d="M 45.356367 -29.764487 C 45.356367 -25.067755 41.549583 -21.260971 36.852851 -21.260971 C 32.15612 -21.260971 28.345416 -25.067755 28.345416 -29.764487 C 28.345416 -34.461218 32.15612 -38.268002 36.852851 -38.268002 C 41.549583 -38.268002 45.356367 -34.461218 45.356367 -29.764487 Z M 45.356367 -29.764487 " transform="matrix(0.996371,0,0,-0.996371,47.187136,49.909934)"/>
</g>
<path style=" stroke:none;fill-rule:nonzero;fill:rgb(85.76355%,93.70575%,92.999268%);fill-opacity:1;" d="M 129.09375 20.253906 C 129.09375 15.574219 125.300781 11.78125 120.621094 11.78125 C 115.941406 11.78125 112.148438 15.574219 112.148438 20.253906 C 112.148438 24.933594 115.941406 28.726562 120.621094 28.726562 C 125.300781 28.726562 129.09375 24.933594 129.09375 20.253906 Z M 129.09375 20.253906 "/>
<g clip-path="url(#clip4)" clip-rule="nonzero">
<path style="fill:none;stroke-width:0.79701;stroke-linecap:butt;stroke-linejoin:miter;stroke:rgb(4.078674%,46.430969%,42.666626%);stroke-opacity:1;stroke-miterlimit:10;" d="M 82.204932 29.76404 C 82.204932 34.460772 78.398149 38.267555 73.701417 38.267555 C 69.004685 38.267555 65.197902 34.460772 65.197902 29.76404 C 65.197902 25.067308 69.004685 21.260525 73.701417 21.260525 C 78.398149 21.260525 82.204932 25.067308 82.204932 29.76404 Z M 82.204932 29.76404 " transform="matrix(0.996371,0,0,-0.996371,47.187136,49.909934)"/>
</g>
<path style="fill-rule:nonzero;fill:rgb(85.76355%,93.70575%,92.999268%);fill-opacity:1;stroke-width:0.79701;stroke-linecap:butt;stroke-linejoin:miter;stroke:rgb(4.078674%,46.430969%,42.666626%);stroke-opacity:1;stroke-miterlimit:10;" d="M 82.204932 9.922505 C 82.204932 14.619236 78.398149 18.42602 73.701417 18.42602 C 69.004685 18.42602 65.197902 14.619236 65.197902 9.922505 C 65.197902 5.225773 69.004685 1.41899 73.701417 1.41899 C 78.398149 1.41899 82.204932 5.225773 82.204932 9.922505 Z M 82.204932 9.922505 " transform="matrix(0.996371,0,0,-0.996371,47.187136,49.909934)"/>
<path style="fill-rule:nonzero;fill:rgb(85.76355%,93.70575%,92.999268%);fill-opacity:1;stroke-width:0.79701;stroke-linecap:butt;stroke-linejoin:miter;stroke:rgb(4.078674%,46.430969%,42.666626%);stroke-opacity:1;stroke-miterlimit:10;" d="M 82.204932 -9.922951 C 82.204932 -5.226219 78.398149 -1.415516 73.701417 -1.415516 C 69.004685 -1.415516 65.197902 -5.226219 65.197902 -9.922951 C 65.197902 -14.619683 69.004685 -18.426466 73.701417 -18.426466 C 78.398149 -18.426466 82.204932 -14.619683 82.204932 -9.922951 Z M 82.204932 -9.922951 " transform="matrix(0.996371,0,0,-0.996371,47.187136,49.909934)"/>
<path style=" stroke:none;fill-rule:nonzero;fill:rgb(85.76355%,93.70575%,92.999268%);fill-opacity:1;" d="M 129.09375 79.566406 C 129.09375 74.886719 125.300781 71.09375 120.621094 71.09375 C 115.941406 71.09375 112.148438 74.886719 112.148438 79.566406 C 112.148438 84.246094 115.941406 88.039062 120.621094 88.039062 C 125.300781 88.039062 129.09375 84.246094 129.09375 79.566406 Z M 129.09375 79.566406 "/>
<g clip-path="url(#clip5)" clip-rule="nonzero">
<path style="fill:none;stroke-width:0.79701;stroke-linecap:butt;stroke-linejoin:miter;stroke:rgb(4.078674%,46.430969%,42.666626%);stroke-opacity:1;stroke-miterlimit:10;" d="M 82.204932 -29.764487 C 82.204932 -25.067755 78.398149 -21.260971 73.701417 -21.260971 C 69.004685 -21.260971 65.197902 -25.067755 65.197902 -29.764487 C 65.197902 -34.461218 69.004685 -38.268002 73.701417 -38.268002 C 78.398149 -38.268002 82.204932 -34.461218 82.204932 -29.764487 Z M 82.204932 -29.764487 " transform="matrix(0.996371,0,0,-0.996371,47.187136,49.909934)"/>
</g>
<path style="fill-rule:nonzero;fill:rgb(88.627625%,83.137512%,90.979004%);fill-opacity:1;stroke-width:0.79701;stroke-linecap:butt;stroke-linejoin:miter;stroke:rgb(43.136597%,15.684509%,54.902649%);stroke-opacity:1;stroke-miterlimit:10;" d="M 119.767025 -0.000223259 C 119.767025 5.088556 115.642683 9.212898 110.553903 9.212898 C 105.465124 9.212898 101.340782 5.088556 101.340782 -0.000223259 C 101.340782 -5.089003 105.465124 -9.213345 110.553903 -9.213345 C 115.642683 -9.213345 119.767025 -5.089003 119.767025 -0.000223259 Z M 119.767025 -0.000223259 " transform="matrix(0.996371,0,0,-0.996371,47.187136,49.909934)"/>
<g style="fill:rgb(43.136597%,15.684509%,54.902649%);fill-opacity:1;">
  <use xlink:href="#glyph0-4" x="155.237597" y="50.978044"/>
</g>
<path style="fill:none;stroke-width:0.3985;stroke-linecap:butt;stroke-linejoin:miter;stroke:rgb(0%,0%,0%);stroke-opacity:1;stroke-miterlimit:10;" d="M 9.609455 19.841312 L 23.919197 27.584255 " transform="matrix(0.996371,0,0,-0.996371,47.187136,49.909934)"/>
<path style="fill-rule:nonzero;fill:rgb(0%,0%,0%);fill-opacity:1;stroke-width:0.3985;stroke-linecap:butt;stroke-linejoin:miter;stroke:rgb(0%,0%,0%);stroke-opacity:1;stroke-miterlimit:10;" d="M 3.759173 -0.000335293 C 3.299745 0.114501 1.267741 0.750292 -0.000968616 1.445632 L -0.00143795 -1.447208 C 1.270048 -0.753226 3.297699 -0.111739 3.759173 -0.000335293 Z M 3.759173 -0.000335293 " transform="matrix(0.876278,-0.474103,-0.474103,-0.876278,71.018259,22.426473)"/>
<path style="fill:none;stroke-width:0.3985;stroke-linecap:butt;stroke-linejoin:miter;stroke:rgb(0%,0%,0%);stroke-opacity:1;stroke-miterlimit:10;" d="M 9.609455 19.841312 L 23.919197 12.10229 " transform="matrix(0.996371,0,0,-0.996371,47.187136,49.909934)"/>
<path style="fill-rule:nonzero;fill:rgb(0%,0%,0%);fill-opacity:1;stroke-width:0.3985;stroke-linecap:butt;stroke-linejoin:miter;stroke:rgb(0%,0%,0%);stroke-opacity:1;stroke-miterlimit:10;" d="M 3.760659 -0.00244345 C 3.297327 0.11242 1.269709 0.753957 0.000117698 1.44452 L 0.00050861 -1.448297 C 1.269227 -0.752997 3.299366 -0.113818 3.760659 -0.00244345 Z M 3.760659 -0.00244345 " transform="matrix(0.876298,0.474083,0.474083,-0.876298,71.018199,37.851712)"/>
<path style="fill:none;stroke-width:0.3985;stroke-linecap:butt;stroke-linejoin:miter;stroke:rgb(0%,0%,0%);stroke-opacity:1;stroke-miterlimit:10;" d="M 9.609455 19.841312 L 25.546195 -6.018156 " transform="matrix(0.996371,0,0,-0.996371,47.187136,49.909934)"/>
<path style="fill-rule:nonzero;fill:rgb(0%,0%,0%);fill-opacity:1;stroke-width:0.3985;stroke-linecap:butt;stroke-linejoin:miter;stroke:rgb(0%,0%,0%);stroke-opacity:1;stroke-miterlimit:10;" d="M 3.761257 0.000887489 C 3.299229 0.110546 1.268595 0.753734 0.00110734 1.447129 L 0.00141596 -1.445077 C 1.267049 -0.751189 3.300656 -0.111379 3.761257 0.000887489 Z M 3.761257 0.000887489 " transform="matrix(0.522597,0.848241,0.848241,-0.522597,72.639096,55.907669)"/>
<path style="fill:none;stroke-width:0.3985;stroke-linecap:butt;stroke-linejoin:miter;stroke:rgb(0%,0%,0%);stroke-opacity:1;stroke-miterlimit:10;" d="M 9.609455 19.841312 L 26.357734 -25.463723 " transform="matrix(0.996371,0,0,-0.996371,47.187136,49.909934)"/>
<path style="fill-rule:nonzero;fill:rgb(0%,0%,0%);fill-opacity:1;stroke-width:0.3985;stroke-linecap:butt;stroke-linejoin:miter;stroke:rgb(0%,0%,0%);stroke-opacity:1;stroke-miterlimit:10;" d="M 3.760151 0.0000753368 C 3.299829 0.111717 1.269961 0.749208 0.0011071 1.443962 L -0.00183807 -1.447458 C 1.267365 -0.750425 3.299971 -0.114052 3.760151 0.0000753368 Z M 3.760151 0.0000753368 " transform="matrix(0.345452,0.934526,0.934526,-0.345452,73.450979,75.282941)"/>
<path style="fill:none;stroke-width:0.3985;stroke-linecap:butt;stroke-linejoin:miter;stroke:rgb(0%,0%,0%);stroke-opacity:1;stroke-miterlimit:10;" d="M 9.609455 -0.000223259 L 25.546195 25.863165 " transform="matrix(0.996371,0,0,-0.996371,47.187136,49.909934)"/>
<path style="fill-rule:nonzero;fill:rgb(0%,0%,0%);fill-opacity:1;stroke-width:0.3985;stroke-linecap:butt;stroke-linejoin:miter;stroke:rgb(0%,0%,0%);stroke-opacity:1;stroke-miterlimit:10;" d="M 3.762892 0.000169635 C 3.298965 0.110388 1.268753 0.752291 -0.00017564 1.44414 L -0.000554395 -1.448007 C 1.270262 -0.752601 3.299589 -0.11487 3.762892 0.000169635 Z M 3.762892 0.000169635 " transform="matrix(0.522587,-0.84827,-0.84827,-0.522587,72.639175,24.141258)"/>
<path style="fill:none;stroke-width:0.3985;stroke-linecap:butt;stroke-linejoin:miter;stroke:rgb(0%,0%,0%);stroke-opacity:1;stroke-miterlimit:10;" d="M 9.609455 -0.000223259 L 23.919197 7.742719 " transform="matrix(0.996371,0,0,-0.996371,47.187136,49.909934)"/>
<path style="fill-rule:nonzero;fill:rgb(0%,0%,0%);fill-opacity:1;stroke-width:0.3985;stroke-linecap:butt;stroke-linejoin:miter;stroke:rgb(0%,0%,0%);stroke-opacity:1;stroke-miterlimit:10;" d="M 3.759713 0.000662695 C 3.298419 0.112051 1.268281 0.75129 -0.000428663 1.44663 L -0.000897999 -1.44621 C 1.270588 -0.752228 3.298239 -0.110741 3.759713 0.000662695 Z M 3.759713 0.000662695 " transform="matrix(0.876278,-0.474103,-0.474103,-0.876278,71.018259,42.197135)"/>
<path style="fill:none;stroke-width:0.3985;stroke-linecap:butt;stroke-linejoin:miter;stroke:rgb(0%,0%,0%);stroke-opacity:1;stroke-miterlimit:10;" d="M 9.609455 -0.000223259 L 23.919197 -7.739245 " transform="matrix(0.996371,0,0,-0.996371,47.187136,49.909934)"/>
<path style="fill-rule:nonzero;fill:rgb(0%,0%,0%);fill-opacity:1;stroke-width:0.3985;stroke-linecap:butt;stroke-linejoin:miter;stroke:rgb(0%,0%,0%);stroke-opacity:1;stroke-miterlimit:10;" d="M 3.760124 -0.00145425 C 3.296792 0.113409 1.271039 0.751497 -0.000417465 1.445509 L -0.0000265535 -1.447308 C 1.268692 -0.752008 3.298831 -0.112829 3.760124 -0.00145425 Z M 3.760124 -0.00145425 " transform="matrix(0.876298,0.474083,0.474083,-0.876298,71.018199,57.622364)"/>
<path style="fill:none;stroke-width:0.3985;stroke-linecap:butt;stroke-linejoin:miter;stroke:rgb(0%,0%,0%);stroke-opacity:1;stroke-miterlimit:10;" d="M 9.609455 -0.000223259 L 25.546195 -25.863612 " transform="matrix(0.996371,0,0,-0.996371,47.187136,49.909934)"/>
<path style="fill-rule:nonzero;fill:rgb(0%,0%,0%);fill-opacity:1;stroke-width:0.3985;stroke-linecap:butt;stroke-linejoin:miter;stroke:rgb(0%,0%,0%);stroke-opacity:1;stroke-miterlimit:10;" d="M 3.760274 0.00149317 C 3.298246 0.111152 1.27095 0.752283 0.000124239 1.447734 L 0.000432862 -1.444471 C 1.269404 -0.752639 3.299673 -0.110773 3.760274 0.00149317 Z M 3.760274 0.00149317 " transform="matrix(0.522597,0.848241,0.848241,-0.522597,72.639096,75.678351)"/>
<path style="fill:none;stroke-width:0.3985;stroke-linecap:butt;stroke-linejoin:miter;stroke:rgb(0%,0%,0%);stroke-opacity:1;stroke-miterlimit:10;" d="M 9.609455 -19.841759 L 26.357734 25.467197 " transform="matrix(0.996371,0,0,-0.996371,47.187136,49.909934)"/>
<path style="fill-rule:nonzero;fill:rgb(0%,0%,0%);fill-opacity:1;stroke-width:0.3985;stroke-linecap:butt;stroke-linejoin:miter;stroke:rgb(0%,0%,0%);stroke-opacity:1;stroke-miterlimit:10;" d="M 3.762999 0.0010011 C 3.299141 0.113774 1.270211 0.751528 0.00100996 1.448575 L 0.000250575 -1.444214 C 1.269115 -0.74947 3.298996 -0.111996 3.762999 0.0010011 Z M 3.762999 0.0010011 " transform="matrix(0.345442,-0.934526,-0.934526,-0.345442,73.451038,24.536498)"/>
<path style="fill:none;stroke-width:0.3985;stroke-linecap:butt;stroke-linejoin:miter;stroke:rgb(0%,0%,0%);stroke-opacity:1;stroke-miterlimit:10;" d="M 9.609455 -19.841759 L 25.546195 6.02163 " transform="matrix(0.996371,0,0,-0.996371,47.187136,49.909934)"/>
<path style="fill-rule:nonzero;fill:rgb(0%,0%,0%);fill-opacity:1;stroke-width:0.3985;stroke-linecap:butt;stroke-linejoin:miter;stroke:rgb(0%,0%,0%);stroke-opacity:1;stroke-miterlimit:10;" d="M 3.760512 -0.0012969 C 3.299922 0.110978 1.269711 0.752881 0.000781914 1.44473 L 0.000403159 -1.447418 C 1.27122 -0.752011 3.300547 -0.11428 3.760512 -0.0012969 Z M 3.760512 -0.0012969 " transform="matrix(0.522587,-0.84827,-0.84827,-0.522587,72.639175,43.91191)"/>
<path style="fill:none;stroke-width:0.3985;stroke-linecap:butt;stroke-linejoin:miter;stroke:rgb(0%,0%,0%);stroke-opacity:1;stroke-miterlimit:10;" d="M 9.609455 -19.841759 L 23.919197 -12.102737 " transform="matrix(0.996371,0,0,-0.996371,47.187136,49.909934)"/>
<path style="fill-rule:nonzero;fill:rgb(0%,0%,0%);fill-opacity:1;stroke-width:0.3985;stroke-linecap:butt;stroke-linejoin:miter;stroke:rgb(0%,0%,0%);stroke-opacity:1;stroke-miterlimit:10;" d="M 3.760253 0.00166068 C 3.298959 0.113049 1.268821 0.752288 0.00011129 1.447628 L -0.000358046 -1.445212 C 1.271128 -0.75123 3.296914 -0.113191 3.760253 0.00166068 Z M 3.760253 0.00166068 " transform="matrix(0.876278,-0.474103,-0.474103,-0.876278,71.018259,61.967797)"/>
<path style="fill:none;stroke-width:0.3985;stroke-linecap:butt;stroke-linejoin:miter;stroke:rgb(0%,0%,0%);stroke-opacity:1;stroke-miterlimit:10;" d="M 9.609455 -19.841759 L 23.919197 -27.584701 " transform="matrix(0.996371,0,0,-0.996371,47.187136,49.909934)"/>
<path style="fill-rule:nonzero;fill:rgb(0%,0%,0%);fill-opacity:1;stroke-width:0.3985;stroke-linecap:butt;stroke-linejoin:miter;stroke:rgb(0%,0%,0%);stroke-opacity:1;stroke-miterlimit:10;" d="M 3.759579 -0.000447462 C 3.298112 0.110967 1.270495 0.752504 -0.000962145 1.446516 L -0.000571234 -1.446301 C 1.268147 -0.751001 3.298286 -0.111822 3.759579 -0.000447462 Z M 3.759579 -0.000447462 " transform="matrix(0.876298,0.474083,0.474083,-0.876298,71.018199,77.393035)"/>
<path style="fill:none;stroke-width:0.3985;stroke-linecap:butt;stroke-linejoin:miter;stroke:rgb(0%,0%,0%);stroke-opacity:1;stroke-miterlimit:10;" d="M 45.752335 29.76404 L 60.214975 29.76404 " transform="matrix(0.996371,0,0,-0.996371,47.187136,49.909934)"/>
<path style="fill-rule:nonzero;fill:rgb(0%,0%,0%);fill-opacity:1;stroke-width:0.3985;stroke-linecap:butt;stroke-linejoin:miter;stroke:rgb(0%,0%,0%);stroke-opacity:1;stroke-miterlimit:10;" d="M 3.762133 -0.00017996 C 3.299517 0.113514 1.26871 0.752552 -0.00152467 1.446476 L -0.00152467 -1.446836 C 1.26871 -0.752912 3.299517 -0.113874 3.762133 -0.00017996 Z M 3.762133 -0.00017996 " transform="matrix(0.996371,0,0,-0.996371,107.185113,20.253727)"/>
<path style="fill:none;stroke-width:0.3985;stroke-linecap:butt;stroke-linejoin:miter;stroke:rgb(0%,0%,0%);stroke-opacity:1;stroke-miterlimit:10;" d="M 45.752335 29.76404 L 61.626347 13.227467 " transform="matrix(0.996371,0,0,-0.996371,47.187136,49.909934)"/>
<path style="fill-rule:nonzero;fill:rgb(0%,0%,0%);fill-opacity:1;stroke-width:0.3985;stroke-linecap:butt;stroke-linejoin:miter;stroke:rgb(0%,0%,0%);stroke-opacity:1;stroke-miterlimit:10;" d="M 3.760483 -0.000492024 C 3.297872 0.112041 1.268889 0.749848 -0.00153937 1.44756 L -0.000530446 -1.444583 C 1.269114 -0.750301 3.299699 -0.112529 3.760483 -0.000492024 Z M 3.760483 -0.000492024 " transform="matrix(0.689927,0.718782,0.718782,-0.689927,108.589488,36.730286)"/>
<path style="fill:none;stroke-width:0.3985;stroke-linecap:butt;stroke-linejoin:miter;stroke:rgb(0%,0%,0%);stroke-opacity:1;stroke-miterlimit:10;" d="M 45.752335 29.76404 L 62.818172 -5.790768 " transform="matrix(0.996371,0,0,-0.996371,47.187136,49.909934)"/>
<path style="fill-rule:nonzero;fill:rgb(0%,0%,0%);fill-opacity:1;stroke-width:0.3985;stroke-linecap:butt;stroke-linejoin:miter;stroke:rgb(0%,0%,0%);stroke-opacity:1;stroke-miterlimit:10;" d="M 3.763203 0.000477503 C 3.300164 0.11398 1.269709 0.749231 -0.00066959 1.445891 L -0.00119401 -1.445835 C 1.267683 -0.750146 3.300319 -0.112235 3.763203 0.000477503 Z M 3.763203 0.000477503 " transform="matrix(0.43108,0.898228,0.898228,-0.43108,109.775767,55.678583)"/>
<path style="fill:none;stroke-width:0.3985;stroke-linecap:butt;stroke-linejoin:miter;stroke:rgb(0%,0%,0%);stroke-opacity:1;stroke-miterlimit:10;" d="M 45.752335 29.76404 L 63.402323 -25.400995 " transform="matrix(0.996371,0,0,-0.996371,47.187136,49.909934)"/>
<path style="fill-rule:nonzero;fill:rgb(0%,0%,0%);fill-opacity:1;stroke-width:0.3985;stroke-linecap:butt;stroke-linejoin:miter;stroke:rgb(0%,0%,0%);stroke-opacity:1;stroke-miterlimit:10;" d="M 3.759798 -0.00151513 C 3.298411 0.113173 1.267195 0.750704 0.000264894 1.448316 L 0.00055538 -1.445589 C 1.268015 -0.752036 3.299916 -0.113709 3.759798 -0.00151513 Z M 3.759798 -0.00151513 " transform="matrix(0.303614,0.948954,0.948954,-0.303614,110.35991,75.216822)"/>
<path style="fill:none;stroke-width:0.3985;stroke-linecap:butt;stroke-linejoin:miter;stroke:rgb(0%,0%,0%);stroke-opacity:1;stroke-miterlimit:10;" d="M 45.752335 9.922505 L 61.626347 26.459078 " transform="matrix(0.996371,0,0,-0.996371,47.187136,49.909934)"/>
<path style="fill-rule:nonzero;fill:rgb(0%,0%,0%);fill-opacity:1;stroke-width:0.3985;stroke-linecap:butt;stroke-linejoin:miter;stroke:rgb(0%,0%,0%);stroke-opacity:1;stroke-miterlimit:10;" d="M 3.761035 0.0010216 C 3.300251 0.113058 1.269666 0.750831 0.000021273 1.445113 L -0.000987654 -1.447031 C 1.26944 -0.749319 3.298424 -0.111511 3.761035 0.0010216 Z M 3.761035 0.0010216 " transform="matrix(0.689927,-0.718782,-0.718782,-0.689927,108.589488,23.547819)"/>
<path style="fill:none;stroke-width:0.3985;stroke-linecap:butt;stroke-linejoin:miter;stroke:rgb(0%,0%,0%);stroke-opacity:1;stroke-miterlimit:10;" d="M 45.752335 9.922505 L 60.214975 9.922505 " transform="matrix(0.996371,0,0,-0.996371,47.187136,49.909934)"/>
<path style="fill-rule:nonzero;fill:rgb(0%,0%,0%);fill-opacity:1;stroke-width:0.3985;stroke-linecap:butt;stroke-linejoin:miter;stroke:rgb(0%,0%,0%);stroke-opacity:1;stroke-miterlimit:10;" d="M 3.762133 0.000954666 C 3.299517 0.114649 1.26871 0.749766 -0.00152467 1.447611 L -0.00152467 -1.445701 C 1.26871 -0.751777 3.299517 -0.112739 3.762133 0.000954666 Z M 3.762133 0.000954666 " transform="matrix(0.996371,0,0,-0.996371,107.185113,40.024389)"/>
<path style="fill:none;stroke-width:0.3985;stroke-linecap:butt;stroke-linejoin:miter;stroke:rgb(0%,0%,0%);stroke-opacity:1;stroke-miterlimit:10;" d="M 45.752335 9.922505 L 61.626347 -6.614068 " transform="matrix(0.996371,0,0,-0.996371,47.187136,49.909934)"/>
<path style="fill-rule:nonzero;fill:rgb(0%,0%,0%);fill-opacity:1;stroke-width:0.3985;stroke-linecap:butt;stroke-linejoin:miter;stroke:rgb(0%,0%,0%);stroke-opacity:1;stroke-miterlimit:10;" d="M 3.759679 0.000279872 C 3.297068 0.112813 1.268084 0.75062 0.000484988 1.445617 L 0.00149392 -1.446527 C 1.26831 -0.749529 3.298895 -0.111757 3.759679 0.000279872 Z M 3.759679 0.000279872 " transform="matrix(0.689927,0.718782,0.718782,-0.689927,108.589488,56.500928)"/>
<path style="fill:none;stroke-width:0.3985;stroke-linecap:butt;stroke-linejoin:miter;stroke:rgb(0%,0%,0%);stroke-opacity:1;stroke-miterlimit:10;" d="M 45.752335 9.922505 L 62.818172 -25.632304 " transform="matrix(0.996371,0,0,-0.996371,47.187136,49.909934)"/>
<path style="fill-rule:nonzero;fill:rgb(0%,0%,0%);fill-opacity:1;stroke-width:0.3985;stroke-linecap:butt;stroke-linejoin:miter;stroke:rgb(0%,0%,0%);stroke-opacity:1;stroke-miterlimit:10;" d="M 3.762171 0.000972781 C 3.299132 0.114475 1.268677 0.749726 -0.00170159 1.446386 L 0.0013087 -1.447036 C 1.270186 -0.751347 3.299287 -0.111739 3.762171 0.000972781 Z M 3.762171 0.000972781 " transform="matrix(0.43108,0.898228,0.898228,-0.43108,109.775767,75.449255)"/>
<path style="fill:none;stroke-width:0.3985;stroke-linecap:butt;stroke-linejoin:miter;stroke:rgb(0%,0%,0%);stroke-opacity:1;stroke-miterlimit:10;" d="M 45.752335 -9.922951 L 62.818172 25.631857 " transform="matrix(0.996371,0,0,-0.996371,47.187136,49.909934)"/>
<path style="fill-rule:nonzero;fill:rgb(0%,0%,0%);fill-opacity:1;stroke-width:0.3985;stroke-linecap:butt;stroke-linejoin:miter;stroke:rgb(0%,0%,0%);stroke-opacity:1;stroke-miterlimit:10;" d="M 3.761381 -0.00135205 C 3.298497 0.11136 1.269395 0.750968 0.000518427 1.446657 L 0.00104285 -1.445069 C 1.267887 -0.750105 3.298341 -0.114854 3.761381 -0.00135205 Z M 3.761381 -0.00135205 " transform="matrix(0.43108,-0.898228,-0.898228,-0.43108,109.775767,24.370184)"/>
<path style="fill:none;stroke-width:0.3985;stroke-linecap:butt;stroke-linejoin:miter;stroke:rgb(0%,0%,0%);stroke-opacity:1;stroke-miterlimit:10;" d="M 45.752335 -9.922951 L 61.626347 6.613622 " transform="matrix(0.996371,0,0,-0.996371,47.187136,49.909934)"/>
<path style="fill-rule:nonzero;fill:rgb(0%,0%,0%);fill-opacity:1;stroke-width:0.3985;stroke-linecap:butt;stroke-linejoin:miter;stroke:rgb(0%,0%,0%);stroke-opacity:1;stroke-miterlimit:10;" d="M 3.761861 0.00181427 C 3.298248 0.111136 1.270492 0.751624 0.000847096 1.445906 L -0.000161831 -1.446238 C 1.267438 -0.751241 3.29925 -0.110719 3.761861 0.00181427 Z M 3.761861 0.00181427 " transform="matrix(0.689927,-0.718782,-0.718782,-0.689927,108.589488,43.318491)"/>
<path style="fill:none;stroke-width:0.3985;stroke-linecap:butt;stroke-linejoin:miter;stroke:rgb(0%,0%,0%);stroke-opacity:1;stroke-miterlimit:10;" d="M 45.752335 -9.922951 L 60.214975 -9.922951 " transform="matrix(0.996371,0,0,-0.996371,47.187136,49.909934)"/>
<path style="fill-rule:nonzero;fill:rgb(0%,0%,0%);fill-opacity:1;stroke-width:0.3985;stroke-linecap:butt;stroke-linejoin:miter;stroke:rgb(0%,0%,0%);stroke-opacity:1;stroke-miterlimit:10;" d="M 3.762133 -0.00184118 C 3.299517 0.111853 1.26871 0.75089 -0.00152467 1.444815 L -0.00152467 -1.444577 C 1.26871 -0.750652 3.299517 -0.111615 3.762133 -0.00184118 Z M 3.762133 -0.00184118 " transform="matrix(0.996371,0,0,-0.996371,107.185113,59.79504)"/>
<path style="fill:none;stroke-width:0.3985;stroke-linecap:butt;stroke-linejoin:miter;stroke:rgb(0%,0%,0%);stroke-opacity:1;stroke-miterlimit:10;" d="M 45.752335 -9.922951 L 61.626347 -26.459524 " transform="matrix(0.996371,0,0,-0.996371,47.187136,49.909934)"/>
<path style="fill-rule:nonzero;fill:rgb(0%,0%,0%);fill-opacity:1;stroke-width:0.3985;stroke-linecap:butt;stroke-linejoin:miter;stroke:rgb(0%,0%,0%);stroke-opacity:1;stroke-miterlimit:10;" d="M 3.761667 -0.0016286 C 3.299056 0.110904 1.267244 0.751427 -0.000355265 1.446424 L 0.000653662 -1.44572 C 1.270298 -0.751438 3.300883 -0.113665 3.761667 -0.0016286 Z M 3.761667 -0.0016286 " transform="matrix(0.689927,0.718782,0.718782,-0.689927,108.589488,76.27162)"/>
<path style="fill:none;stroke-width:0.3985;stroke-linecap:butt;stroke-linejoin:miter;stroke:rgb(0%,0%,0%);stroke-opacity:1;stroke-miterlimit:10;" d="M 45.752335 -29.764487 L 63.402323 25.400549 " transform="matrix(0.996371,0,0,-0.996371,47.187136,49.909934)"/>
<path style="fill-rule:nonzero;fill:rgb(0%,0%,0%);fill-opacity:1;stroke-width:0.3985;stroke-linecap:butt;stroke-linejoin:miter;stroke:rgb(0%,0%,0%);stroke-opacity:1;stroke-miterlimit:10;" d="M 3.758963 0.00124802 C 3.299081 0.113442 1.26718 0.751768 -0.000279476 1.445322 L -0.000569962 -1.448583 C 1.270094 -0.749776 3.30131 -0.112245 3.758963 0.00124802 Z M 3.758963 0.00124802 " transform="matrix(0.303614,-0.948954,-0.948954,-0.303614,110.35991,24.602618)"/>
<path style="fill:none;stroke-width:0.3985;stroke-linecap:butt;stroke-linejoin:miter;stroke:rgb(0%,0%,0%);stroke-opacity:1;stroke-miterlimit:10;" d="M 45.752335 -29.764487 L 62.818172 5.790322 " transform="matrix(0.996371,0,0,-0.996371,47.187136,49.909934)"/>
<path style="fill-rule:nonzero;fill:rgb(0%,0%,0%);fill-opacity:1;stroke-width:0.3985;stroke-linecap:butt;stroke-linejoin:miter;stroke:rgb(0%,0%,0%);stroke-opacity:1;stroke-miterlimit:10;" d="M 3.762422 -0.000852444 C 3.299538 0.11186 1.270436 0.751467 0.00155944 1.447156 L -0.00145084 -1.446266 C 1.268928 -0.749606 3.299382 -0.114355 3.762422 -0.000852444 Z M 3.762422 -0.000852444 " transform="matrix(0.43108,-0.898228,-0.898228,-0.43108,109.775767,44.140866)"/>
<path style="fill:none;stroke-width:0.3985;stroke-linecap:butt;stroke-linejoin:miter;stroke:rgb(0%,0%,0%);stroke-opacity:1;stroke-miterlimit:10;" d="M 45.752335 -29.764487 L 61.626347 -13.227914 " transform="matrix(0.996371,0,0,-0.996371,47.187136,49.909934)"/>
<path style="fill-rule:nonzero;fill:rgb(0%,0%,0%);fill-opacity:1;stroke-width:0.3985;stroke-linecap:butt;stroke-linejoin:miter;stroke:rgb(0%,0%,0%);stroke-opacity:1;stroke-miterlimit:10;" d="M 3.759836 -0.000128829 C 3.299052 0.111908 1.268468 0.74968 0.00165128 1.446678 L 0.000642348 -1.445466 C 1.268242 -0.750469 3.297225 -0.112662 3.759836 -0.000128829 Z M 3.759836 -0.000128829 " transform="matrix(0.689927,-0.718782,-0.718782,-0.689927,108.589488,63.089133)"/>
<path style="fill:none;stroke-width:0.3985;stroke-linecap:butt;stroke-linejoin:miter;stroke:rgb(0%,0%,0%);stroke-opacity:1;stroke-miterlimit:10;" d="M 45.752335 -29.764487 L 60.214975 -29.764487 " transform="matrix(0.996371,0,0,-0.996371,47.187136,49.909934)"/>
<path style="fill-rule:nonzero;fill:rgb(0%,0%,0%);fill-opacity:1;stroke-width:0.3985;stroke-linecap:butt;stroke-linejoin:miter;stroke:rgb(0%,0%,0%);stroke-opacity:1;stroke-miterlimit:10;" d="M 3.762133 -0.000686559 C 3.299517 0.113007 1.26871 0.752045 -0.00152467 1.44597 L -0.00152467 -1.447343 C 1.26871 -0.749498 3.299517 -0.11438 3.762133 -0.000686559 Z M 3.762133 -0.000686559 " transform="matrix(0.996371,0,0,-0.996371,107.185113,79.565722)"/>
<path style="fill:none;stroke-width:0.3985;stroke-linecap:butt;stroke-linejoin:miter;stroke:rgb(0%,0%,0%);stroke-opacity:1;stroke-miterlimit:10;" d="M 82.604821 29.76404 L 98.53764 3.900652 " transform="matrix(0.996371,0,0,-0.996371,47.187136,49.909934)"/>
<path style="fill-rule:nonzero;fill:rgb(0%,0%,0%);fill-opacity:1;stroke-width:0.3985;stroke-linecap:butt;stroke-linejoin:miter;stroke:rgb(0%,0%,0%);stroke-opacity:1;stroke-miterlimit:10;" d="M 3.762288 -0.00188155 C 3.298984 0.113158 1.269657 0.750889 -0.00115891 1.446296 L -0.000780158 -1.445852 C 1.270205 -0.750665 3.29836 -0.1121 3.762288 -0.00188155 Z M 3.762288 -0.00188155 " transform="matrix(0.522587,0.84827,0.84827,-0.522587,145.367506,46.022423)"/>
<path style="fill:none;stroke-width:0.3985;stroke-linecap:butt;stroke-linejoin:miter;stroke:rgb(0%,0%,0%);stroke-opacity:1;stroke-miterlimit:10;" d="M 82.604821 9.922505 L 96.910642 2.179562 " transform="matrix(0.996371,0,0,-0.996371,47.187136,49.909934)"/>
<path style="fill-rule:nonzero;fill:rgb(0%,0%,0%);fill-opacity:1;stroke-width:0.3985;stroke-linecap:butt;stroke-linejoin:miter;stroke:rgb(0%,0%,0%);stroke-opacity:1;stroke-miterlimit:10;" d="M 3.761239 0.0010059 C 3.299765 0.112409 1.268665 0.752031 0.00062791 1.447879 L 0.00109725 -1.444962 C 1.269807 -0.749621 3.299945 -0.110382 3.761239 0.0010059 Z M 3.761239 0.0010059 " transform="matrix(0.876278,0.474103,0.474103,-0.876278,143.7466,47.737197)"/>
<path style="fill:none;stroke-width:0.3985;stroke-linecap:butt;stroke-linejoin:miter;stroke:rgb(0%,0%,0%);stroke-opacity:1;stroke-miterlimit:10;" d="M 82.604821 -9.922951 L 96.910642 -2.180009 " transform="matrix(0.996371,0,0,-0.996371,47.187136,49.909934)"/>
<path style="fill-rule:nonzero;fill:rgb(0%,0%,0%);fill-opacity:1;stroke-width:0.3985;stroke-linecap:butt;stroke-linejoin:miter;stroke:rgb(0%,0%,0%);stroke-opacity:1;stroke-miterlimit:10;" d="M 3.761011 -0.0013956 C 3.301583 0.113428 1.269579 0.749158 0.000860294 1.444458 L 0.000469382 -1.448359 C 1.268478 -0.752482 3.299544 -0.11281 3.761011 -0.0013956 Z M 3.761011 -0.0013956 " transform="matrix(0.876298,-0.474083,-0.474083,-0.876298,143.74654,52.082591)"/>
<path style="fill:none;stroke-width:0.3985;stroke-linecap:butt;stroke-linejoin:miter;stroke:rgb(0%,0%,0%);stroke-opacity:1;stroke-miterlimit:10;" d="M 82.604821 -29.764487 L 98.53764 -3.901098 " transform="matrix(0.996371,0,0,-0.996371,47.187136,49.909934)"/>
<path style="fill-rule:nonzero;fill:rgb(0%,0%,0%);fill-opacity:1;stroke-width:0.3985;stroke-linecap:butt;stroke-linejoin:miter;stroke:rgb(0%,0%,0%);stroke-opacity:1;stroke-miterlimit:10;" d="M 3.761893 0.00160031 C 3.297953 0.11181 1.269741 0.750338 -0.00128642 1.445508 L -0.00159504 -1.446697 C 1.26923 -0.751246 3.298583 -0.113453 3.761893 0.00160031 Z M 3.761893 0.00160031 " transform="matrix(0.522597,-0.848241,-0.848241,-0.522597,145.367436,53.797295)"/>
<path style="fill:none;stroke-width:0.79701;stroke-linecap:butt;stroke-linejoin:miter;stroke:rgb(10.586548%,21.174622%,36.471558%);stroke-opacity:1;stroke-miterlimit:10;" d="M -15.787397 -0.000223259 L -29.45418 -0.000223259 " transform="matrix(0.996371,0,0,-0.996371,47.187136,49.909934)"/>
<path style="fill-rule:nonzero;fill:rgb(10.586548%,21.174622%,36.471558%);fill-opacity:1;stroke-width:0.79701;stroke-linecap:butt;stroke-linejoin:miter;stroke:rgb(10.586548%,21.174622%,36.471558%);stroke-opacity:1;stroke-miterlimit:10;" d="M 4.532805 -0.000223259 C 3.976097 0.136993 1.529719 0.921089 0.000733313 1.771832 L 0.000733313 -1.772279 C 1.529719 -0.921535 3.976097 -0.13744 4.532805 -0.000223259 Z M 4.532805 -0.000223259 " transform="matrix(0.996371,0,0,-0.996371,31.456301,49.909934)"/>
<g style="fill:rgb(10.586548%,21.174622%,36.471558%);fill-opacity:1;">
  <use xlink:href="#glyph1-1" x="5.293719" y="50.878406"/>
</g>
<g style="fill:rgb(10.586548%,21.174622%,36.471558%);fill-opacity:1;">
  <use xlink:href="#glyph0-5" x="9.795324" y="51.932567"/>
</g>
<path style="fill:none;stroke-width:0.79701;stroke-linecap:butt;stroke-linejoin:miter;stroke:rgb(43.136597%,15.684509%,54.902649%);stroke-opacity:1;stroke-miterlimit:10;" d="M 120.162993 -0.000223259 L 133.829777 -0.000223259 " transform="matrix(0.996371,0,0,-0.996371,47.187136,49.909934)"/>
<path style="fill-rule:nonzero;fill:rgb(43.136597%,15.684509%,54.902649%);fill-opacity:1;stroke-width:0.79701;stroke-linecap:butt;stroke-linejoin:miter;stroke:rgb(43.136597%,15.684509%,54.902649%);stroke-opacity:1;stroke-miterlimit:10;" d="M 4.532058 -0.000223259 C 3.975351 0.136993 1.528973 0.921089 -0.0000133081 1.771832 L -0.0000133081 -1.772279 C 1.528973 -0.921535 3.975351 -0.13744 4.532058 -0.000223259 Z M 4.532058 -0.000223259 " transform="matrix(0.996371,0,0,-0.996371,180.531263,49.909934)"/>
<g style="fill:rgb(43.136597%,15.684509%,54.902649%);fill-opacity:1;">
  <use xlink:href="#glyph1-2" x="190.389568" y="51.646609"/>
</g>
<g style="fill:rgb(43.136597%,15.684509%,54.902649%);fill-opacity:1;">
  <use xlink:href="#glyph0-6" x="195.030664" y="52.699773"/>
</g>
<g style="fill:rgb(43.136597%,15.684509%,54.902649%);fill-opacity:1;">
  <use xlink:href="#glyph2-1" x="199.059988" y="51.646609"/>
</g>
<g style="fill:rgb(43.136597%,15.684509%,54.902649%);fill-opacity:1;">
  <use xlink:href="#glyph1-1" x="202.162688" y="51.646609"/>
</g>
<g style="fill:rgb(43.136597%,15.684509%,54.902649%);fill-opacity:1;">
  <use xlink:href="#glyph0-5" x="206.663296" y="52.699773"/>
</g>
<g style="fill:rgb(43.136597%,15.684509%,54.902649%);fill-opacity:1;">
  <use xlink:href="#glyph2-2" x="211.003488" y="51.646609"/>
</g>
<g style="fill:rgb(0%,0%,0%);fill-opacity:1;">
  <use xlink:href="#glyph3-1" x="38.094254" y="17.237931"/>
  <use xlink:href="#glyph3-2" x="40.824038" y="17.237931"/>
  <use xlink:href="#glyph3-3" x="44.988199" y="17.237931"/>
  <use xlink:href="#glyph3-4" x="49.152359" y="17.237931"/>
  <use xlink:href="#glyph3-5" x="53.31652" y="17.237931"/>
</g>
<g style="fill:rgb(0%,0%,0%);fill-opacity:1;">
  <use xlink:href="#glyph3-6" x="78.468205" y="8.764792"/>
  <use xlink:href="#glyph3-7" x="84.190824" y="8.764792"/>
  <use xlink:href="#glyph3-8" x="86.354798" y="8.764792"/>
  <use xlink:href="#glyph3-8" x="90.518959" y="8.764792"/>
  <use xlink:href="#glyph3-9" x="94.68312" y="8.764792"/>
  <use xlink:href="#glyph3-2" x="98.117684" y="8.764792"/>
</g>
<g style="fill:rgb(0%,0%,0%);fill-opacity:1;">
  <use xlink:href="#glyph3-10" x="104.847841" y="8.764792"/>
  <use xlink:href="#glyph3-11" x="109.29987" y="8.764792"/>
</g>
<g style="fill:rgb(0%,0%,0%);fill-opacity:1;">
  <use xlink:href="#glyph3-12" x="112.764214" y="8.764792"/>
</g>
<g style="fill:rgb(0%,0%,0%);fill-opacity:1;">
  <use xlink:href="#glyph3-9" x="116.531315" y="8.764792"/>
  <use xlink:href="#glyph3-13" x="119.96588" y="8.764792"/>
  <use xlink:href="#glyph3-14" x="123.053017" y="8.764792"/>
</g>
<g style="fill:rgb(0%,0%,0%);fill-opacity:1;">
  <use xlink:href="#glyph3-15" x="145.343633" y="17.280775"/>
  <use xlink:href="#glyph3-4" x="150.912391" y="17.280775"/>
  <use xlink:href="#glyph3-5" x="155.076552" y="17.280775"/>
  <use xlink:href="#glyph3-3" x="158.039608" y="17.280775"/>
  <use xlink:href="#glyph3-4" x="162.203769" y="17.280775"/>
  <use xlink:href="#glyph3-5" x="166.36793" y="17.280775"/>
</g>
</g>
</svg>
